<?xml version="1.0" encoding="UTF-8"?>
<svg xmlns="http://www.w3.org/2000/svg" width="95" height="96" viewBox="0 0 95 96" fill="none">
  <path d="M48.7935 9.65625C48.1334 9.65625 47.5976 10.192 47.5976 10.8522V13.6004L45.2966 14.3873C44.67 14.6002 44.3375 15.2819 44.5504 15.9061C44.7202 16.4036 45.1842 16.717 45.6841 16.717C45.8133 16.717 45.9424 16.6954 46.0716 16.6524L47.6 16.131V19.8622C47.5904 19.9268 47.5808 19.9914 47.5808 20.056V23.7035C47.5665 23.969 47.5474 24.4522 47.5521 25.0621C47.3488 28.6786 46.4854 32.1802 44.5552 32.6681C44.2466 32.7471 43.8233 32.7686 43.309 32.2352C42.9 31.8119 42.5532 31.1732 42.2829 30.4102C43.5841 29.5588 46.2701 27.3774 46.2342 23.902C46.2079 21.3308 45.0383 19.4461 43.321 19.2117C42.0844 19.0418 40.4866 19.8096 39.7189 22.4646C38.7191 25.9232 39.2405 31.4698 41.5869 33.8975C42.3523 34.6892 43.2731 35.1006 44.2466 35.1006C44.5408 35.1006 44.8398 35.0624 45.1388 34.9882C46.7676 34.5768 48.0018 33.3044 48.8174 31.2067C49.0399 31.5607 49.3006 31.8669 49.6067 32.1013C49.9799 32.3883 50.5348 32.6729 51.2691 32.6729C51.5776 32.6729 51.9149 32.6227 52.2856 32.5031C53.4815 32.1132 54.3019 31.0991 54.7372 29.4846C55.4811 30.2045 56.3613 30.5848 57.2893 30.5848C57.5835 30.5848 57.8825 30.5466 58.1839 30.4724C60.1165 29.9845 61.5109 28.2887 62.3337 25.4304C62.5155 24.7942 62.1495 24.1317 61.5133 23.9499C60.8771 23.7681 60.2145 24.1341 60.0328 24.7703C59.3224 27.2363 58.3178 27.973 57.5979 28.1547C57.2869 28.2337 56.866 28.2552 56.3517 27.7218C55.9427 27.2985 55.5959 26.6598 55.3256 25.8968C56.6268 25.0454 59.3128 22.864 59.2769 19.3886C59.2554 17.2479 58.3465 14.9685 56.3637 14.6983C55.1247 14.5284 53.5293 15.2962 52.7616 17.9512C52.1516 20.0584 52.1086 22.9357 52.697 25.4161C52.8118 27.3846 52.5056 29.9175 51.5465 30.2309C51.2762 30.3194 51.0729 30.2572 50.8864 30.0395C50.7333 29.8601 50.6328 29.6401 50.5372 29.4272C50.1784 28.614 50.066 27.6979 50.0373 26.8177C50.0157 26.1384 49.999 24.811 49.9894 23.5122C49.9894 23.4404 49.9894 23.3687 49.9894 23.2993V15.313L53.0199 14.2773C53.6466 14.0644 53.979 13.3827 53.7661 12.7585C53.5533 12.1318 52.8716 11.7993 52.2473 12.0122L49.9918 12.7824V10.8498C49.9894 10.192 49.4537 9.65625 48.7935 9.65625ZM41.7137 27.8582C41.5295 26.258 41.6084 24.5359 42.015 23.1343C42.0987 22.8425 42.1872 22.5507 42.3188 22.278C42.3834 22.144 42.4599 22.0125 42.5532 21.8953C42.6632 21.7542 42.79 21.5987 42.9837 21.5963C43.0794 21.5963 43.1512 21.6537 43.2253 21.735C43.3425 21.8618 43.4286 22.0173 43.498 22.1728C43.7467 22.7181 43.828 23.3352 43.8352 23.9284C43.8544 25.7175 42.6728 27.0617 41.7137 27.8582ZM55.0601 18.6161C55.0936 18.4965 55.1319 18.3769 55.1749 18.2573C55.2658 17.9966 55.6174 17.0638 56.0288 17.0781C56.1101 17.0805 56.1963 17.1212 56.2824 17.2121C56.4785 17.4202 56.5957 17.7072 56.6794 17.9751C56.8253 18.4391 56.8779 18.9294 56.8827 19.4126C56.9018 21.1993 55.7203 22.5435 54.7588 23.34C54.5746 21.7374 54.6535 20.0153 55.0601 18.6161Z" fill="white"></path>
  <path d="M44.2875 10.8473L26.6955 16.8317C26.0689 17.0445 25.734 17.7238 25.9469 18.3505C26.1167 18.848 26.5807 19.1613 27.0806 19.1613C27.2074 19.1613 27.3389 19.1398 27.4657 19.0967L35.0694 16.5112V46.4785C35.0694 47.1387 35.6051 47.6744 36.2653 47.6744C36.9254 47.6744 37.4612 47.1387 37.4612 46.4785V15.6955L45.0577 13.1124C45.6843 12.8995 46.0192 12.2202 45.8063 11.5935C45.5935 10.9693 44.9142 10.6344 44.2875 10.8473Z" fill="white"></path>
  <path d="M41.4484 18.7422L42.3238 17.6755L43.2423 18.2471C43.6632 18.5102 44.2157 18.3811 44.4789 17.9601C44.742 17.5391 44.6128 16.9866 44.1918 16.7235L42.606 15.7357C42.2233 15.4965 41.7235 15.5802 41.4388 15.927L40.0635 17.6037C39.7478 17.9864 39.8052 18.5533 40.1879 18.8666C40.3553 19.0029 40.5562 19.0699 40.7571 19.0699C41.0131 19.0699 41.2714 18.9575 41.4484 18.7422Z" fill="white"></path>
  <path d="M74.9191 42.4586C74.8856 40.3562 73.9815 38.1198 72.0369 37.8591C70.8243 37.6964 69.2576 38.4523 68.5066 41.0546C67.5188 44.4725 67.9947 49.9164 70.2622 52.2604C70.9989 53.0234 71.891 53.4204 72.8382 53.4204C73.1276 53.4204 73.4194 53.3845 73.716 53.308C75.4501 52.8703 76.8756 50.7535 77.9496 47.0198C77.9568 47.0007 77.9615 46.9792 77.9663 46.96L79.3823 40.8393L80.8365 44.9844C80.8389 44.9892 80.8389 44.9939 80.8413 44.9987C81.0279 45.5058 81.1379 46.0511 81.1881 46.5869C81.2264 47.0079 81.2671 47.5532 81.0279 47.9287C80.8796 48.1607 80.6237 48.3234 80.3606 48.3904C80.229 48.4238 80.0879 48.4334 79.9539 48.4047C79.8009 48.3712 79.6908 48.2803 79.5641 48.1966C79.0857 47.8809 78.4519 47.8737 78.0405 48.2995C77.6195 48.7348 77.5908 49.4165 77.9735 49.8853C78.404 50.4162 80.0329 51.4423 82.1353 50.1244C84.5917 48.5841 83.2666 44.6639 83.0944 44.1855L80.2744 36.1561C80.0974 35.6538 79.6095 35.3285 79.0785 35.3572C78.5475 35.3859 78.0979 35.7638 77.9783 36.2829L75.6415 46.3884C74.668 49.7633 73.606 50.8659 73.13 50.9855C72.8263 51.062 72.4507 51.0764 71.9843 50.5956C71.6351 50.2345 71.3337 49.7035 71.0946 49.0673C72.4005 48.2253 74.9765 46.1014 74.9191 42.4586ZM70.5038 46.5415C70.31 44.927 70.389 43.157 70.8052 41.7195C71.14 40.5643 71.4127 40.2533 71.7141 40.2318C71.7164 40.2318 71.7188 40.2318 71.7212 40.2318C72.0824 40.2246 72.501 40.8513 72.5273 42.4969C72.556 44.4414 71.4294 45.7761 70.5038 46.5415Z" fill="white"></path>
  <path d="M23.2821 32.8936V19.9274C23.2821 19.3988 22.854 18.9707 22.3254 18.9707C21.7968 18.9707 21.3687 19.3988 21.3687 19.9274V32.8745C21.3471 33.5059 21.3232 36.4503 22.7344 37.6223C23.1291 37.95 23.5955 38.1174 24.1001 38.1174C24.2795 38.1174 24.4637 38.0959 24.6527 38.0528C25.6955 37.816 26.3461 37.0411 26.7503 36.1058C27.1569 36.5459 27.652 36.7803 28.2308 36.7803C29.2187 36.7803 29.996 36.0987 30.4887 34.8836C30.9432 35.2328 31.4957 35.4146 32.108 35.4146C32.2061 35.4146 32.3065 35.4098 32.407 35.4002C32.9332 35.3524 33.3207 34.886 33.2728 34.3598C33.225 33.8336 32.7586 33.4437 32.2324 33.494C31.876 33.5274 31.7134 33.4246 31.6105 33.3313C31.2039 32.963 31.1058 32.0876 31.1034 31.8149V25.9118C31.1034 25.3832 30.6753 24.9551 30.1467 24.9551C29.6349 24.9551 29.2235 25.3569 29.1948 25.8592C28.9006 25.699 28.5801 25.6128 28.2308 25.6128C27.4104 25.6128 25.4994 26.151 25.4994 31.138C25.4994 31.3246 25.5042 31.5063 25.5089 31.6857C25.5089 31.712 25.5041 31.7383 25.5065 31.7647C25.5998 33.1902 25.2889 35.9504 24.2317 36.1896C24.0547 36.2302 24.0021 36.1872 23.9614 36.1513C23.5022 35.771 23.2415 34.178 23.2845 32.9295C23.2797 32.9175 23.2821 32.9056 23.2821 32.8936ZM28.2476 27.5837C28.592 27.5837 29.1661 28.6146 29.1661 31.1404C29.1661 33.8479 28.6088 34.7951 28.293 34.8262C28.0084 34.8262 27.4104 33.7092 27.4104 31.1404C27.4104 28.4711 27.9343 27.5837 28.2476 27.5837Z" fill="white"></path>
  <path d="M62.2982 78.3313C59.4304 83.6125 53.9172 86.8917 47.9161 86.8917C41.9508 86.8917 36.4568 83.6412 33.577 78.4102C33.2589 77.8314 32.5294 77.6209 31.9505 77.9391C31.3717 78.2572 31.1612 78.9867 31.4793 79.5655C34.7801 85.5618 41.0778 89.2859 47.9161 89.2859C54.7974 89.2859 61.1142 85.526 64.403 79.4746C64.7187 78.8934 64.5035 78.1663 63.9222 77.8505C63.341 77.5348 62.6139 77.7501 62.2982 78.3313Z" fill="white"></path>
  <path d="M55.141 41.3423C55.1482 41.3423 55.1553 41.3423 55.1625 41.3423C55.2175 41.3399 55.2749 41.3327 55.3347 41.3232C55.3395 41.3232 55.3467 41.3208 55.3515 41.3208C55.5691 41.2849 55.8131 41.2012 56.0595 41.0314C56.8942 40.4573 56.7244 39.2853 56.5761 38.7089C56.5354 38.5462 56.4948 38.429 56.478 38.386L55.2008 34.9633C55.1075 34.7145 54.8635 34.5566 54.5957 34.5758C54.3302 34.5949 54.1101 34.7863 54.0551 35.047L53.1414 39.2925C53.1151 39.3858 53.0864 39.5006 53.0553 39.6297C53.0457 39.6656 53.0386 39.6991 53.029 39.735C52.9644 39.9933 52.8951 40.2516 52.8066 40.5028C52.7826 40.5721 52.6941 40.8113 52.6726 40.8568C52.6487 40.9046 52.6152 40.9453 52.5793 40.9835C52.5291 41.0385 52.4597 41.072 52.3832 41.0577C52.3282 41.0481 52.2875 41.0074 52.2564 40.9644C52.199 40.8831 52.1655 40.7826 52.1392 40.6869C52.0962 40.5291 52.0747 40.364 52.0651 40.2014C52.0483 39.9072 52.0579 39.7326 52.0675 39.5078C52.0747 39.3523 52.0818 39.1753 52.0818 38.9409C52.0818 37.7474 51.8379 36.9724 51.338 36.5706C51.1155 36.3936 50.7376 36.207 50.1923 36.3314C49.9196 36.3936 49.6732 36.5347 49.4556 36.7404C49.3527 36.6567 49.2236 36.6065 49.0825 36.6065C48.7524 36.6065 48.4845 36.8743 48.4845 37.2044V40.187C48.4821 40.2157 48.4797 40.2444 48.4797 40.2731C48.4869 40.4214 48.4869 40.5697 48.4845 40.7156V40.785C48.4797 40.95 48.4678 41.1151 48.4462 41.2801C48.4104 41.5719 48.3553 41.8685 48.2501 42.146C48.2142 42.2369 48.1736 42.3301 48.1138 42.4091C48.0851 42.4473 48.054 42.4928 48.0205 42.5263C47.9487 42.598 47.8148 42.5669 47.7574 42.4952C47.7359 42.4689 47.7215 42.4282 47.7072 42.3971C47.6474 42.2632 47.6139 42.1149 47.59 41.9714C47.5613 41.8087 47.5469 41.6437 47.5493 41.4786V37.9459C47.5493 37.6158 47.2814 37.3479 46.9513 37.3479C46.6452 37.3479 46.3964 37.5775 46.3606 37.8717C46.1907 37.7856 46.0066 37.7402 45.8056 37.7402C44.7389 37.7402 44.0476 39.0509 44.0476 41.0792C44.0476 41.2945 44.0572 41.5002 44.0716 41.6987C44.0716 41.7226 44.0692 41.7465 44.0716 41.7728C44.1959 42.9377 43.952 43.9183 43.653 44.0188C43.6195 44.0307 43.5095 44.0642 43.4712 44.0355C43.3133 43.9207 43.2033 43.3873 43.2129 42.9879C43.2129 42.9831 43.2129 42.9783 43.2129 42.9735V36.7571C43.2129 36.4271 42.945 36.1592 42.6149 36.1592C42.2849 36.1592 42.017 36.4271 42.017 36.7571V39.3643C41.8495 39.2805 41.6654 39.2375 41.4692 39.2375C40.3929 39.2375 39.7256 40.5147 39.7256 42.5693C39.7256 44.6359 40.4097 45.9729 41.4692 45.9729C42.0194 45.9729 42.4619 45.6237 42.7632 44.9994C42.933 45.1238 43.1818 45.2434 43.5143 45.2434C43.6697 45.2434 43.8419 45.2171 44.0333 45.1525C44.5141 44.9922 44.8154 44.6167 45.0044 44.1695C45.2364 44.3656 45.5067 44.4756 45.8056 44.4756C46.3558 44.4756 46.7959 44.1288 47.0972 43.5069C47.102 43.5117 47.1068 43.5141 47.1116 43.5189C47.2766 43.6385 47.5206 43.7533 47.8411 43.7533C48.0013 43.7533 48.1807 43.7246 48.3817 43.6528C48.5682 43.5858 48.7261 43.483 48.8648 43.3538C48.9318 43.3801 49.0059 43.3969 49.0825 43.3969C49.4125 43.3969 49.6804 43.129 49.6804 42.7989V40.7707C49.6852 40.608 49.6828 40.4693 49.6804 40.3616V39.668C49.6804 39.6656 49.6804 39.6632 49.6804 39.6608C49.6804 39.3236 49.7091 38.9839 49.7833 38.6563C49.8383 38.4171 49.9148 38.1779 50.0296 37.9602C50.1038 37.8215 50.1923 37.6804 50.3167 37.5799C50.3741 37.5321 50.4506 37.4914 50.5271 37.4986C50.5941 37.5058 50.6348 37.5417 50.673 37.5943C50.8142 37.7928 50.8548 38.2712 50.8692 38.5056C50.8787 38.6515 50.8835 38.7974 50.8835 38.9433C50.8835 39.1514 50.8763 39.3045 50.8692 39.4551C50.8572 39.6919 50.8476 39.9168 50.8668 40.2708C50.8979 40.852 51.0605 41.6269 51.6393 42.0192C51.8068 42.1316 52.0507 42.2392 52.3736 42.2392C52.5387 42.2392 52.7228 42.2105 52.9309 42.1412C53.7298 41.8733 54.0097 40.742 54.213 39.9168C54.2417 39.7948 54.268 39.6895 54.2943 39.6034C54.2991 39.5915 54.3015 39.5771 54.3039 39.5652L54.7918 37.3025L55.3515 38.8069C55.3682 38.8572 55.3874 38.9122 55.4017 38.9696C55.4472 39.1418 55.4782 39.3188 55.4902 39.4958C55.4998 39.6321 55.5022 39.7756 55.4615 39.9072C55.4208 40.034 55.3228 40.1153 55.1912 40.144C55.1888 40.144 55.184 40.1464 55.1817 40.1464C55.1793 40.1464 55.1745 40.1464 55.1721 40.1488C55.1506 40.1512 55.1314 40.1536 55.1123 40.156C55.0429 40.1583 54.9903 40.144 54.964 40.1368L54.9305 40.1272C54.61 40.0435 54.2823 40.2349 54.1986 40.5554C54.1197 40.8591 54.2895 41.1677 54.5813 41.2682L54.5789 41.2753C54.622 41.2825 54.8229 41.3567 55.141 41.3423ZM41.4668 44.7698C41.242 44.7698 40.9191 43.9925 40.9191 42.5645C40.9191 41.0959 41.2779 40.4286 41.4668 40.4286C41.6199 40.4286 42.0026 41.0098 42.0026 42.5621C42.0026 43.9853 41.706 44.7531 41.4668 44.7698ZM45.8033 43.2749C45.5999 43.2749 45.3751 42.8013 45.2842 41.9283C45.2771 41.8087 45.2675 41.713 45.2603 41.6485C45.2483 41.4715 45.2412 41.2825 45.2412 41.0768C45.2412 39.5173 45.6095 38.9337 45.8033 38.9337C45.997 38.9337 46.339 39.5149 46.339 41.0672C46.339 42.4904 46.0759 43.2582 45.8033 43.2749Z" fill="white"></path>
  <path d="M63.6178 34.1437C63.5987 32.8665 62.9553 32.2111 62.3286 32.1274C61.7785 32.0556 61.0777 32.3857 60.7476 33.5314C60.506 34.3685 60.4773 35.2607 60.5921 36.0643C60.6065 36.8824 60.3817 38.4466 59.7646 38.5973C59.7287 38.6069 59.7143 38.6045 59.7143 38.6045C59.5254 38.5303 59.2934 37.6549 59.3029 36.7723V31.9384C59.3029 31.6083 59.0351 31.3405 58.705 31.3405C58.3749 31.3405 58.107 31.6083 58.107 31.9384V36.7628C58.0831 38.7336 58.8126 39.4153 58.9609 39.5325C59.1833 39.7095 59.4464 39.8004 59.7263 39.8004C59.8339 39.8004 59.944 39.786 60.054 39.7597C60.7931 39.578 61.2164 38.9489 61.4628 38.2529C61.4771 38.2696 61.4915 38.2888 61.5058 38.3031C61.8335 38.6404 62.2282 38.8174 62.6491 38.8174C62.7783 38.8174 62.9098 38.8006 63.0414 38.7671C64.0938 38.5016 64.8592 37.1694 65.1271 36.0428L65.6868 33.6247L66.3349 35.1794C66.4976 35.5621 66.4904 35.7845 66.4976 35.8897C66.5024 35.9806 66.488 36.0596 66.4713 36.1481C66.4498 36.2509 66.3804 36.3394 66.2895 36.3896C66.2201 36.4279 66.1412 36.447 66.0623 36.459C65.9929 36.471 65.9116 36.4757 65.8422 36.4566C65.5241 36.3633 65.1917 36.5427 65.0984 36.8608C65.0051 37.1766 65.1845 37.5114 65.5026 37.6047C65.5074 37.6071 65.5145 37.6071 65.5193 37.6119C65.5289 37.6143 65.5504 37.619 65.5791 37.6262C65.7753 37.6717 66.1795 37.7171 66.6602 37.5305C66.7727 37.4875 66.8899 37.4349 67.0071 37.3631C68.1193 36.6862 67.5237 34.9521 67.4519 34.7584C67.4495 34.7512 66.0742 31.4481 66.0742 31.4481C65.9738 31.2089 65.7322 31.0606 65.4715 31.0821C65.2132 31.1037 64.9979 31.2902 64.9381 31.5438L63.9599 35.7725C63.7302 36.746 63.1466 37.5066 62.7472 37.6071C62.6491 37.631 62.5319 37.643 62.3645 37.4707C62.2401 37.3416 62.1301 37.1598 62.0416 36.9398C62.618 36.5523 63.6417 35.6506 63.6178 34.1437ZM61.7522 35.6482C61.6996 35.0406 61.7426 34.3972 61.8957 33.8639C61.9962 33.5194 62.0918 33.297 62.1971 33.3018C62.3454 33.3018 62.4506 33.5362 62.4602 34.1437C62.4721 34.823 62.087 35.3324 61.7522 35.6482Z" fill="white"></path>
  <path d="M77.2373 28.9245C76.5771 28.9245 75.9146 28.9628 75.2568 29.0369C75.2736 28.8001 75.2808 28.5633 75.2808 28.3266C75.2808 23.0884 71.3486 18.752 66.2803 18.1134C66.4286 17.2452 66.5051 16.365 66.5051 15.48C66.5051 6.9459 59.5616 0 51.0251 0C47.8727 0 44.8398 0.942388 42.2542 2.72431C40.0155 4.26705 38.2383 6.34316 37.0711 8.77327C35.6815 8.48625 34.2607 8.34034 32.8328 8.34034C21.3711 8.34034 12.0477 17.6637 12.0477 29.1254C12.0477 30.6466 12.2127 32.1583 12.5404 33.634C9.28751 34.2153 6.30967 35.8417 4.03982 38.3005C1.43511 41.1229 0 44.792 0 48.6333C0 57.0358 6.83588 63.8717 15.2384 63.8717H20.5052C21.1654 63.8717 21.7012 63.3359 21.7012 62.6758C21.7012 62.0156 21.1654 61.4798 20.5052 61.4798H15.2384C8.15617 61.4798 2.39184 55.7179 2.39184 48.6333C2.39184 45.3947 3.60211 42.3021 5.79543 39.9222C7.97918 37.5567 10.9403 36.1048 14.1334 35.8345C14.4922 35.8034 14.8174 35.6145 15.0208 35.3179C15.2241 35.0213 15.2839 34.6506 15.181 34.3062C14.6907 32.6271 14.4395 30.8858 14.4395 29.1254C14.4395 18.984 22.689 10.7346 32.8304 10.7346C34.3994 10.7346 35.9589 10.9331 37.4634 11.323C38.0446 11.4737 38.6497 11.1699 38.8746 10.6102C39.8361 8.21358 41.4745 6.16856 43.6104 4.69758C45.7942 3.19311 48.3582 2.39662 51.0227 2.39662C58.2389 2.39662 64.1085 8.2662 64.1085 15.4824C64.1085 16.6472 63.9554 17.8049 63.6516 18.9242C63.5536 19.2878 63.6301 19.6777 63.8621 19.9743C64.0941 20.2708 64.4577 20.4431 64.8284 20.4359C64.8571 20.4359 64.8882 20.4335 64.9169 20.4335C64.9408 20.4335 64.9624 20.4311 64.9863 20.4311C69.3418 20.4311 72.8865 23.9758 72.8865 28.3289C72.8865 28.958 72.81 29.5871 72.6617 30.2018C72.5636 30.6012 72.6808 31.0245 72.9678 31.3187C73.2549 31.6129 73.6734 31.7397 74.0777 31.6536C75.1133 31.4312 76.1753 31.3187 77.2373 31.3187C85.5083 31.3187 92.2365 38.047 92.2365 46.318C92.2365 54.5818 85.5083 61.3052 77.2325 61.3172C77.2229 61.3172 77.2158 61.3148 77.2062 61.3148H67.1341C67.1461 60.9273 67.1437 60.6714 67.1437 60.5901V45.8683V45.5263C67.1413 43.9955 67.1389 42.4145 67.5575 40.9411C67.7369 40.3049 67.3686 39.6424 66.7323 39.463C66.0961 39.2836 65.4336 39.6519 65.2542 40.2881C65.1274 40.7354 65.0317 41.1851 64.96 41.6324C64.4385 41.1923 63.8334 40.9579 63.1565 40.9579C60.7671 40.9579 59.3966 43.797 59.3966 48.7481C59.3966 49.2815 59.4133 49.7981 59.4468 50.2908C59.4468 50.3004 59.4468 50.31 59.4468 50.3219C59.4492 50.3363 59.5568 51.7235 59.3846 53.2065C59.3798 53.2447 59.375 53.2854 59.3702 53.3237C59.2889 53.9623 59.1598 54.6177 58.8847 55.2037C58.667 55.6629 58.3298 56.2058 57.7366 56.0552C57.2367 55.9284 57.0645 55.3663 56.9569 54.9238C56.8253 54.3904 56.7607 53.8307 56.7703 53.283C56.7703 53.2734 56.7703 53.2639 56.7703 53.2543V44.7322C56.7703 44.072 56.2345 43.5363 55.5744 43.5363C54.9142 43.5363 54.3785 44.072 54.3785 44.7322V44.9785C53.9121 44.6556 53.3883 44.4858 52.8118 44.4858C50.4224 44.4858 49.0518 47.3249 49.0518 52.276C49.0518 52.8477 49.0734 53.3954 49.1092 53.9192C49.1092 53.9503 49.1069 53.9814 49.1092 54.0149C49.1116 54.0293 49.1762 55.4333 49.004 56.9138C48.8222 58.4733 48.3654 59.5209 47.7818 59.7171C47.3178 59.8725 47.1647 59.7601 47.1168 59.7218C46.6146 59.3535 46.373 57.8993 46.3897 56.9928C46.3897 56.9832 46.3897 56.9736 46.3897 56.9641V48.2027C46.3897 47.5426 45.854 47.0068 45.1938 47.0068C44.5337 47.0068 43.9979 47.5426 43.9979 48.2027V56.2943C43.9501 59.7003 43.1105 61.5564 42.4312 61.5564C41.9242 61.5564 41.0655 59.9538 41.0655 55.9858V52.4817C41.0679 52.3909 41.0679 52.3 41.0703 52.2115C41.0774 51.7833 41.087 51.3671 41.0966 50.9725C41.099 50.8744 41.087 50.7811 41.0655 50.6879V50.0062C41.0655 49.346 40.5297 48.8103 39.8696 48.8103C39.2094 48.8103 38.6737 49.346 38.6737 50.0062V52.4626C38.5995 56.3852 38.4129 63.2402 36.0952 63.9171C35.117 64.2018 34.7343 63.9076 34.6075 63.8095C33.7225 63.1254 33.579 61.0924 33.5958 60.437C33.5958 60.4226 33.5958 60.4107 33.5958 60.3963V47.722C33.5982 47.5785 33.6053 46.715 33.426 45.7128C33.1413 44.1223 32.5458 42.9742 31.6536 42.2997C31.0245 41.8237 29.9363 41.3597 28.3313 41.862C26.9441 42.2949 25.7936 43.8065 24.8464 46.4495C23.8275 42.9096 20.5626 40.3121 16.6998 40.3121C12.0262 40.3121 8.22315 44.1151 8.22315 48.7887C8.22315 50.2597 8.62737 51.8192 9.33296 53.0654C10.2706 54.7229 11.677 55.7681 13.3991 56.0886C15.6259 56.5048 17.4078 55.7897 19.0032 53.8451C19.4217 53.3332 19.3476 52.5798 18.8357 52.1612C18.3239 51.7427 17.5705 51.8168 17.1519 52.3287C15.956 53.7853 14.9633 53.9455 13.8392 53.7351C11.476 53.295 10.6174 50.5348 10.6174 48.7887C10.6174 45.4354 13.3465 42.7039 16.6998 42.7039C20.0556 42.7039 22.7847 45.433 22.7847 48.7887V57.9662C22.7775 58.1743 22.7751 58.3776 22.7751 58.5642C22.7751 58.5977 22.7823 58.6312 22.7847 58.6646V70.5186C22.7847 70.521 22.7847 70.5234 22.7847 70.5258C22.7847 70.5282 22.7847 70.5306 22.7847 70.533C22.7847 84.3913 34.0598 95.6664 47.9181 95.6664C61.7764 95.6664 73.0516 84.3913 73.0516 70.533C73.0516 69.8728 72.5158 69.337 71.8556 69.337C71.1955 69.337 70.6597 69.8728 70.6597 70.533C70.6597 83.071 60.4585 93.2722 47.9205 93.2722C35.3825 93.2722 25.1813 83.071 25.1813 70.533C25.1813 70.5306 25.1813 70.5282 25.1813 70.5258C25.1813 70.5234 25.1813 70.521 25.1813 70.5162V58.0045C25.2411 56.0121 25.6094 52.8094 26.3437 49.8268C27.5947 44.7346 28.903 44.1916 29.0489 44.1462C29.8143 43.907 30.1037 44.1247 30.2137 44.2084C31.0102 44.8087 31.2279 46.8083 31.2087 47.6789C31.2087 47.6885 31.2087 47.7005 31.2087 47.71V60.3772C31.1944 60.8532 31.1752 64.1707 33.1437 65.6967C33.6173 66.065 34.342 66.4286 35.3514 66.4286C35.7747 66.4286 36.2459 66.364 36.7721 66.2109C38.389 65.7373 39.384 64.3261 40.0011 62.4414C40.5058 63.2283 41.2808 63.9458 42.4384 63.9458C43.7276 63.9458 44.7705 63.0345 45.4569 61.4368C45.5358 61.5085 45.6148 61.5803 45.7033 61.6449C46.0764 61.9199 46.6313 62.1878 47.3752 62.1878C47.7244 62.1878 48.1142 62.128 48.5472 61.9845C49.6259 61.6257 50.4128 60.7551 50.9031 59.3918C51.3791 59.8773 52.0034 60.2337 52.819 60.2337C54.1082 60.2337 55.151 59.3224 55.8375 57.7247C55.9164 57.7964 55.9954 57.8682 56.0839 57.9328C56.457 58.2078 57.0119 58.4781 57.7557 58.4781C58.105 58.4781 58.4948 58.4183 58.9301 58.2748C59.9658 57.9304 60.7336 57.11 61.2263 55.8399C61.7047 56.3398 62.3361 56.7081 63.1661 56.7081C63.7521 56.7081 64.2855 56.5192 64.7591 56.1652V60.5973C64.7591 60.6044 64.7591 60.6116 64.7591 60.6188C64.7614 60.7192 64.8595 70.7171 59.0904 73.0085C56.4235 74.0681 53.704 73.7787 51.8168 72.2312C50.4391 71.1022 49.7814 69.5164 50.0588 67.9928C50.4295 65.9574 51.6398 64.7758 53.9814 64.1611C56.3374 63.5416 59.4707 63.6038 62.5012 63.6636C62.5083 63.6636 62.5179 63.6636 62.5251 63.6636C63.1757 63.6636 63.709 63.1422 63.721 62.4916C63.733 61.8314 63.2091 61.2837 62.549 61.2718C59.3535 61.2096 56.0528 61.1426 53.3739 61.8482C50.1497 62.6949 48.241 64.6203 47.7052 67.5671C47.2699 69.9613 48.2386 72.3962 50.3004 74.0872C51.8766 75.3788 53.8427 76.039 55.9332 76.039C57.2535 76.039 58.624 75.7735 59.9754 75.2377C64.9528 73.2597 66.4836 67.3973 66.95 63.709H77.187C77.199 63.709 77.2086 63.7114 77.2205 63.7114C86.8262 63.7114 94.6403 55.9092 94.6403 46.318C94.6307 36.7267 86.8286 28.9245 77.2373 28.9245ZM52.8118 57.8466C52.2952 57.8562 51.4461 56.2441 51.4461 52.276C51.4461 48.5089 52.3239 46.8657 52.8118 46.8801C53.1228 46.8848 53.3906 47.2341 53.7064 48.021C54.1225 49.0638 54.3498 50.5731 54.3498 52.276C54.3498 55.8805 53.5198 57.8347 52.8118 57.8466ZM63.1565 54.3187C62.5155 54.3187 61.7908 52.7161 61.7908 48.7481C61.7908 44.9809 62.5059 43.3664 63.1565 43.3521C63.544 43.3473 63.7353 43.7061 64.0511 44.493C64.4673 45.5358 64.6945 47.0451 64.6945 48.7481C64.6945 52.3526 63.8238 54.3187 63.1565 54.3187Z" fill="white"></path>
</svg>
